<svg xmlns="http://www.w3.org/2000/svg" xmlns:xlink="http://www.w3.org/1999/xlink" width="512" height="512" viewBox="0 0 384 384" xmlns:v="https://vecta.io/nano"><style><![CDATA[.B{color-interpolation-filters:sRGB}.C{flood-color:#000}.D{flood-opacity:.498}.E{flood-opacity:.427}]]></style><defs><linearGradient id="A" x1="630.971" y1="360.079" x2="659.565" y2="358.881" xlink:href="#I"><stop offset=".322" stop-color="#fff" stop-opacity="0"/><stop offset="1" stop-color="#ffd785"/></linearGradient><filter id="B" x="-1.556" y="-.058" width="3.579" height="1.131" class="B"><feFlood class="C D"/><feComposite in2="SourceGraphic" operator="in"/><feGaussianBlur stdDeviation="8"/><feOffset dx="-10" dy="5"/><feComposite in="SourceGraphic"/></filter><filter id="C" x="-.117" y="-.123" width="1.194" height="1.279" class="B"><feFlood class="C D"/><feComposite in2="SourceGraphic" operator="in"/><feGaussianBlur stdDeviation="8"/><feOffset dx="-10" dy="5"/><feComposite in="SourceGraphic"/></filter><filter id="D" x="-.031" y="-.02" width="1.052" height="1.052" class="B"><feFlood class="C D"/><feComposite in2="SourceGraphic" operator="in"/><feGaussianBlur stdDeviation="7.996"/><feOffset dx="-10" dy="10.1246"/><feComposite in="SourceGraphic"/></filter><radialGradient id="E" cx="2001.363" cy="302.253" fx="2001.363" fy="302.253" r="566.929" gradientTransform="matrix(-1.7687772,1.7427017,-1.3387768,-1.3588086,4851.7835,-2844.6666)" xlink:href="#I"><stop offset="0" stop-color="#25ad6b"/><stop offset=".238" stop-color="#248c5c"/><stop offset=".466" stop-color="#226e4d"/><stop offset=".794" stop-color="#247a55"/><stop offset=".99" stop-color="#28af60"/><stop offset="1" stop-color="#247c55"/></radialGradient><filter id="F" x="-.227" y="-.212" width="1.439" height="1.439" class="B"><feFlood flood-color="#c4880e" class="E"/><feComposite in2="SourceGraphic" operator="in"/><feGaussianBlur stdDeviation="8.723"/><feOffset/><feComposite in="SourceGraphic" result="E"/><feColorMatrix values="0 0 0 -1 0 0 0 0 -1 0 0 0 0 -1 0 0 0 0 1 0"/><feFlood class="C E"/><feComposite in2="E" operator="in"/><feGaussianBlur stdDeviation="8.723"/><feOffset dx="-2.9595" dy="2.9595"/><feComposite in="E"/></filter><filter id="G" x="-.044" y="-.045" width="1.093" height="1.089" class="B"><feFlood flood-opacity=".761" class="C"/><feComposite in2="SourceGraphic" operator="in"/><feGaussianBlur stdDeviation="14.953"/><feOffset dx="3.89408" dy="-0.778816"/><feComposite in="SourceGraphic"/></filter><path id="H" d="M649.736 193.98v332.197h-18.765V193.98z"/><linearGradient id="I" gradientUnits="userSpaceOnUse"/><radialGradient id="J" cx="675.652" cy="642.95" r="454.572" fx="675.652" fy="642.95" xlink:href="#I"><stop offset="0%" stop-color="#fdc44a" stop-opacity="1"/><stop offset="100%" stop-color="#ffae02" stop-opacity="1"/></radialGradient><linearGradient id="K" x1="56.851" y1="1078.019" x2="1046.679" y2="83.333" xlink:href="#I"><stop offset=".248" stop-color="#171517" stop-opacity="1"/><stop offset=".727" stop-color="#363636" stop-opacity="1"/></linearGradient><linearGradient id="L" x1="902.702" y1="244.146" x2="385.681" y2="765.652" xlink:href="#I"><stop offset=".0000%" stop-color="#575757" stop-opacity="1"/><stop offset=".27" stop-color="#1f1f1f" stop-opacity="1"/><stop offset=".653" stop-color="#303030" stop-opacity="1"/><stop offset="1" stop-color="#1f1f1f"/></linearGradient><radialGradient id="M" cx="1520.733" cy="171.59" r="76.238" gradientTransform="scale(0.42287363,2.3647727)" fx="1520.733" fy="171.59" xlink:href="#I"><stop offset="0" stop-color="#fcbd35"/><stop offset="1" stop-color="#f1a400"/></radialGradient><linearGradient id="N" x1="590.124" y1="715.556" x2="571.206" y2="734.537" gradientTransform="scale(1.2669523,0.78929569)" xlink:href="#I"><stop offset="0" stop-color="#fcb311"/><stop offset="1" stop-color="#e49b00"/></linearGradient><linearGradient id="O" x1="586.091" y1="733.954" x2="597.641" y2="721.578" gradientTransform="matrix(1.265906,0,0,0.78994809,2.0000001e-6,-9.9999999e-6)" xlink:href="#I"><stop offset="0" stop-color="#ffae02" stop-opacity="0"/><stop offset="1" stop-color="#fce8bf" stop-opacity=".623"/></linearGradient><radialGradient id="P" cx="904.474" cy="225.539" r="284.412" fx="904.474" fy="225.539" xlink:href="#I"><stop offset="0" stop-color="#e19a00"/><stop offset=".241" stop-color="#fcba2b"/><stop offset="1" stop-color="#fcd37b"/></radialGradient></defs><g transform="matrix(.3387 0 0 .3387 .004335 -.004335)"><path d="M-.013 1133.871h1133.858V.013H-.013z" fill="url(#E)"/><path d="M-.013 184.265v765.354q0 184.252 184.252 184.252h765.354q184.252 0 184.252-184.252V184.265Q1133.846.013 949.594.013H184.239Q-.013.013-.013 184.265z" fill="#269e7e" fill-opacity="0" fill-rule="evenodd"/><path d="M583.863 988.25c-241.397 0-437.088-195.691-437.088-437.088s195.691-437.088 437.088-437.088c20.551 0 39.785 1.78 59.215 5.393-.089-.023-.179-.044-.271-.061-28.572-5.449-57.788-8.298-87.969-8.298-258.91 0-468.799 209.889-468.799 468.799s209.888 468.799 468.799 468.799 468.799-209.889 468.799-468.799c0-25.997-2.116-51.5-6.186-76.346 2.258 15.223 3.5 31.75 3.5 47.602 0 241.397-195.691 437.088-437.088 437.088z" fill="url(#K)" filter="url(#D)"/><path d="M953.708 699.687c-32.497 49.084-76.276 90.048-127.637 119.196-1.878 1.065-4.275.413-5.354-1.456l-18.362-31.804a3.95 3.95 0 0 0-5.38-1.442l-2.973 1.716c-1.878 1.084-2.526 3.501-1.441 5.379l18.041 31.248a3.81 3.81 0 0 1 .362 3.101c-.324 1.078-1.003 1.886-2.009 2.39-52.908 26.485-111.014 39.793-170.164 39.311-2.158-.018-3.906-1.781-3.906-3.938V826.73c0-2.169-1.769-3.938-3.938-3.938h-3.433c-2.169 0-3.938 1.769-3.938 3.938v36.011c0 1.126-.418 2.094-1.238 2.866s-1.81 1.132-2.934 1.065c-60.728-3.608-117.552-21.72-167.056-50.919-1.857-1.096-2.488-3.494-1.409-5.361l18.359-31.799a3.95 3.95 0 0 0-1.442-5.38l-2.973-1.716c-1.878-1.085-4.295-.437-5.38 1.441l-18.717 32.419c-.375.649-.938 1.069-1.667 1.242s-1.421.052-2.048-.36a375.55 375.55 0 0 1-120.369-128.41c-1.065-1.877-.413-4.275 1.456-5.354l31.945-18.444a3.94 3.94 0 0 0 1.522-5.233l-3.08-5.897c-.516-.987-1.322-1.648-2.391-1.958s-2.104-.186-3.068.371l-34.222 19.758a.51.51 0 0 1-.411.049c-.143-.042-.251-.131-.319-.264-26.179-51.044-39.888-105.854-39.888-167.185l.013-3.124c.018-2.158 1.78-3.906 3.938-3.906h36.659c2.169 0 3.938-1.769 3.938-3.938v-3.433c0-2.169-1.769-3.938-3.938-3.938h-36.012c-1.125 0-2.094-.418-2.866-1.238s-1.132-1.81-1.065-2.934c3.608-60.728 21.72-117.551 50.919-167.056 1.096-1.857 3.494-2.488 5.361-1.41l31.798 18.359c1.879 1.085 4.295.437 5.38-1.442l1.716-2.973c1.085-1.878.437-4.295-1.441-5.379l-32.419-18.717c-.649-.375-1.068-.938-1.241-1.667a2.54 2.54 0 0 1 .36-2.048c32.574-49.604 76.64-90.99 128.411-120.369 1.877-1.065 4.275-.413 5.354 1.457l18.362 31.803c1.084 1.878 3.501 2.526 5.38 1.441l2.973-1.716c1.879-1.084 2.526-3.501 1.441-5.38l-18.736-32.452c-.375-.649-.456-1.345-.242-2.063s.664-1.256 1.332-1.593c47.428-23.965 100.66-38.118 157.027-39.787 1.105-.033 2.067.341 2.86 1.111s1.195 1.72 1.195 2.826v37.966c0 2.169 1.769 3.938 3.938 3.938h3.433c2.169 0 3.938-1.769 3.938-3.938v-38.8c0-1.722-1.078-3.193-2.664-3.728-10.095-1.714-19.756-2.507-30.456-2.507-223.884 0-405.378 181.494-405.378 405.378s181.494 405.378 405.378 405.378 405.378-181.494 405.378-405.378a163.65 163.65 0 0 0-.742-15.596l-.072-3.261-1.873-10.658-.013 3.892c-.017 2.158-1.78 3.907-3.938 3.907H974.97c-2.169 0-3.938 1.769-3.938 3.938v3.433c0 2.169 1.769 3.938 3.938 3.938h36.011c1.126 0 2.095.418 2.866 1.237s1.132 1.811 1.065 2.934c-3.608 60.728-21.72 117.552-50.919 167.056-1.096 1.857-3.494 2.488-5.361 1.409l-31.799-18.359c-1.878-1.085-4.295-.437-5.379 1.442l-1.716 2.973c-1.084 1.878-.437 4.295 1.442 5.38l31.212 18.02c.976.563 1.606 1.411 1.864 2.508s.073 2.137-.549 3.076z" fill="url(#L)" filter="url(#G)"/><use xlink:href="#H" fill="url(#M)" filter="url(#B)"/><use xlink:href="#H" fill="url(#A)" stroke="#ffce63" stroke-width=".5"/><path d="M856.065 646.798L614.35 504.872l8.017-13.654 69.232 40.65 172.483 101.276z" fill="url(#N)" filter="url(#C)"/><path d="M856.065 646.798L614.35 504.872l8.017-13.654 241.715 141.926z" fill="url(#O)" stroke="#ffce63" stroke-width=".5"/><path d="M612.888 927.795c-223.884 0-405.378-181.494-405.378-405.378s181.494-405.378 405.378-405.378c11.42 0 21.654.903 32.499 2.865-20.217-3.908-40.159-5.831-61.523-5.831-241.397 0-437.088 195.691-437.088 437.088S342.466 988.25 583.864 988.25s437.088-195.691 437.088-437.088c0-15.852-1.242-32.379-3.5-47.602l.072 3.261c.491 5.132.742 10.335.742 15.596 0 223.884-181.494 405.378-405.378 405.378z" fill="url(#J)"/><path d="M905.953 125.202l28.588 67.921 70.269 7.6-52.6 49.577 14.84 72.617-61.097-37.28-61.097 37.28 14.84-72.617-52.6-49.577 70.269-7.6z" fill="url(#P)" filter="url(#F)"/></g></svg>