<?xml version="1.0" encoding="UTF-8" standalone="no"?>
<svg
   width="512"
   height="512"
   viewBox="0 0 384 384"
   version="1.1"
   id="svg156"
   sodipodi:docname="monochrome_logo.svg"
   inkscape:version="1.2.2 (732a01da63, 2022-12-09)"
   xmlns:inkscape="http://www.inkscape.org/namespaces/inkscape"
   xmlns:sodipodi="http://sodipodi.sourceforge.net/DTD/sodipodi-0.dtd"
   xmlns:xlink="http://www.w3.org/1999/xlink"
   xmlns="http://www.w3.org/2000/svg"
   xmlns:svg="http://www.w3.org/2000/svg">
  <sodipodi:namedview
     id="namedview158"
     pagecolor="#505050"
     bordercolor="#ffffff"
     borderopacity="1"
     inkscape:showpageshadow="0"
     inkscape:pageopacity="0"
     inkscape:pagecheckerboard="1"
     inkscape:deskcolor="#505050"
     showgrid="false"
     inkscape:zoom="0.83203127"
     inkscape:cx="123.19249"
     inkscape:cy="377.9906"
     inkscape:window-width="1450"
     inkscape:window-height="1033"
     inkscape:window-x="555"
     inkscape:window-y="134"
     inkscape:window-maximized="0"
     inkscape:current-layer="svg156" />
  <style
     id="style2"><![CDATA[.B{color-interpolation-filters:sRGB}.C{flood-color:#000}.D{flood-opacity:.498}.E{flood-opacity:.427}]]></style>
  <defs
     id="defs132">
    <linearGradient
       id="A"
       x1="630.97101"
       y1="360.07901"
       x2="659.565"
       y2="358.88101"
       xlink:href="#I">
      <stop
         offset=".322"
         stop-color="#fff"
         stop-opacity="0"
         id="stop4" />
      <stop
         offset="1"
         stop-color="#ffd785"
         id="stop6" />
    </linearGradient>
    <filter
       id="B"
       x="-1.5560885"
       y="-0.05779703"
       width="3.5792699"
       height="1.1306454"
       class="B">
      <feFlood
         class="C D"
         id="feFlood9" />
      <feComposite
         in2="SourceGraphic"
         operator="in"
         id="feComposite11" />
      <feGaussianBlur
         stdDeviation="8"
         id="feGaussianBlur13" />
      <feOffset
         dx="-10"
         dy="5"
         id="feOffset15"
         result="result1" />
      <feComposite
         in="SourceGraphic"
         in2="result1"
         id="feComposite17" />
    </filter>
    <filter
       id="C"
       x="-0.11692534"
       y="-0.12340918"
       width="1.1938078"
       height="1.2789562"
       class="B">
      <feFlood
         class="C D"
         id="feFlood20" />
      <feComposite
         in2="SourceGraphic"
         operator="in"
         id="feComposite22" />
      <feGaussianBlur
         stdDeviation="8"
         id="feGaussianBlur24" />
      <feOffset
         dx="-10"
         dy="5"
         id="feOffset26"
         result="result1" />
      <feComposite
         in="SourceGraphic"
         in2="result1"
         id="feComposite28" />
    </filter>
    <filter
       id="D"
       x="-0.031133172"
       y="-0.02046762"
       width="1.0516008"
       height="1.0517337"
       class="B">
      <feFlood
         class="C D"
         id="feFlood31" />
      <feComposite
         in2="SourceGraphic"
         operator="in"
         id="feComposite33" />
      <feGaussianBlur
         stdDeviation="7.996"
         id="feGaussianBlur35" />
      <feOffset
         dx="-10"
         dy="10.1246"
         id="feOffset37"
         result="result1" />
      <feComposite
         in="SourceGraphic"
         in2="result1"
         id="feComposite39" />
    </filter>
    <radialGradient
       id="E"
       cx="2001.363"
       cy="302.25299"
       fx="2001.363"
       fy="302.25299"
       r="566.92902"
       gradientTransform="matrix(-0.59908484,0.59025307,-0.4534437,-0.46022847,1643.3034,-963.49291)"
       xlink:href="#I">
      <stop
         offset="0"
         stop-color="#25ad6b"
         id="stop42" />
      <stop
         offset=".238"
         stop-color="#248c5c"
         id="stop44" />
      <stop
         offset=".466"
         stop-color="#226e4d"
         id="stop46" />
      <stop
         offset=".794"
         stop-color="#247a55"
         id="stop48" />
      <stop
         offset=".99"
         stop-color="#28af60"
         id="stop50" />
      <stop
         offset="1"
         stop-color="#247c55"
         id="stop52" />
    </radialGradient>
    <filter
       id="F"
       x="-0.63412863"
       y="-0.61915691"
       width="2.2532887"
       height="2.2532823"
       class="B">
      <feFlood
         flood-color="#c4880e"
         class="E"
         id="feFlood55" />
      <feComposite
         in2="SourceGraphic"
         operator="in"
         id="feComposite57" />
      <feGaussianBlur
         stdDeviation="42.283919"
         id="feGaussianBlur59" />
      <feOffset
         id="feOffset61"
         result="result1" />
      <feComposite
         in="SourceGraphic"
         result="E"
         in2="result1"
         id="feComposite63" />
      <feColorMatrix
         values="0 0 0 -1 0 0 0 0 -1 0 0 0 0 -1 0 0 0 0 1 0"
         id="feColorMatrix65" />
      <feFlood
         class="C E"
         id="feFlood67" />
      <feComposite
         in2="E"
         operator="in"
         id="feComposite69" />
      <feGaussianBlur
         stdDeviation="8.723"
         id="feGaussianBlur71" />
      <feOffset
         dx="-2.9595"
         dy="2.9595"
         id="feOffset73"
         result="result2" />
      <feComposite
         in="E"
         in2="result2"
         id="feComposite75" />
    </filter>
    <filter
       id="G"
       x="-0.044263872"
       y="-0.045224477"
       width="1.0933308"
       height="1.0894883"
       class="B">
      <feFlood
         flood-opacity=".761"
         class="C"
         id="feFlood78" />
      <feComposite
         in2="SourceGraphic"
         operator="in"
         id="feComposite80" />
      <feGaussianBlur
         stdDeviation="14.953"
         id="feGaussianBlur82" />
      <feOffset
         dx="3.89408"
         dy="-0.778816"
         id="feOffset84"
         result="result1" />
      <feComposite
         in="SourceGraphic"
         in2="result1"
         id="feComposite86" />
    </filter>
    <path
       id="H"
       d="M 649.736,193.98 V 526.177 H 630.971 V 193.98 Z" />
    <linearGradient
       id="I"
       gradientUnits="userSpaceOnUse" />
    <radialGradient
       id="J"
       cx="675.65198"
       cy="642.95001"
       r="454.57199"
       fx="675.65198"
       fy="642.95001"
       xlink:href="#I"
       gradientTransform="matrix(0.3387,0,0,0.3387,0.004335,-0.004335)">
      <stop
         offset="0%"
         stop-color="#fdc44a"
         stop-opacity="1"
         id="stop91" />
      <stop
         offset="100%"
         stop-color="#ffae02"
         stop-opacity="1"
         id="stop93" />
    </radialGradient>
    <linearGradient
       id="K"
       x1="56.851002"
       y1="1078.019"
       x2="1046.679"
       y2="83.333"
       xlink:href="#I">
      <stop
         offset=".248"
         stop-color="#171517"
         stop-opacity="1"
         id="stop96" />
      <stop
         offset=".727"
         stop-color="#363636"
         stop-opacity="1"
         id="stop98" />
    </linearGradient>
    <linearGradient
       id="L"
       x1="902.70203"
       y1="244.146"
       x2="385.681"
       y2="765.65198"
       xlink:href="#I">
      <stop
         offset=".0000%"
         stop-color="#575757"
         stop-opacity="1"
         id="stop101" />
      <stop
         offset=".27"
         stop-color="#1f1f1f"
         stop-opacity="1"
         id="stop103" />
      <stop
         offset=".653"
         stop-color="#303030"
         stop-opacity="1"
         id="stop105" />
      <stop
         offset="1"
         stop-color="#1f1f1f"
         id="stop107" />
    </linearGradient>
    <radialGradient
       id="M"
       cx="1520.733"
       cy="171.59"
       r="76.237999"
       gradientTransform="scale(0.42287363,2.3647727)"
       fx="1520.733"
       fy="171.59"
       xlink:href="#I">
      <stop
         offset="0"
         stop-color="#fcbd35"
         id="stop110" />
      <stop
         offset="1"
         stop-color="#f1a400"
         id="stop112" />
    </radialGradient>
    <linearGradient
       id="N"
       x1="590.12402"
       y1="715.55603"
       x2="571.20599"
       y2="734.53699"
       gradientTransform="scale(1.2669523,0.78929569)"
       xlink:href="#I">
      <stop
         offset="0"
         stop-color="#fcb311"
         id="stop115" />
      <stop
         offset="1"
         stop-color="#e49b00"
         id="stop117" />
    </linearGradient>
    <linearGradient
       id="O"
       x1="586.091"
       y1="733.95398"
       x2="597.64099"
       y2="721.578"
       gradientTransform="matrix(0.42876236,0,0,0.26755542,0.00433568,-0.00433839)"
       xlink:href="#I">
      <stop
         offset="0"
         stop-color="#ffae02"
         stop-opacity="0"
         id="stop120" />
      <stop
         offset="1"
         stop-color="#fce8bf"
         stop-opacity=".623"
         id="stop122" />
    </linearGradient>
    <radialGradient
       id="P"
       cx="904.474"
       cy="225.539"
       r="284.41199"
       fx="904.474"
       fy="225.539"
       xlink:href="#I">
      <stop
         offset="0"
         stop-color="#e19a00"
         id="stop125" />
      <stop
         offset=".241"
         stop-color="#fcba2b"
         id="stop127" />
      <stop
         offset="1"
         stop-color="#fcd37b"
         id="stop129" />
    </radialGradient>
  </defs>
  <g
     id="g311"
     transform="matrix(0.54319683,0,0,0.54319683,89.918135,85.310619)">
    <path
       id="path150"
       style="fill:#b3b3b3;fill-opacity:1;stroke:none;stroke-width:0.3387"
       d="m 207.5895,314.23983 c -75.82951,0 -137.301528,-61.47202 -137.301528,-137.30153 0,-75.82951 61.472018,-137.301526 137.301528,-137.301526 3.86795,0 7.33421,0.305846 11.00741,0.970376 -6.8475,-1.32364 -13.60185,-1.97496 -20.83784,-1.97496 -81.76116,0 -148.041704,66.28054 -148.041704,148.04171 0,81.76116 66.280204,148.04204 148.041704,148.04204 81.7615,0 148.04171,-66.28054 148.04171,-148.04171 0,-5.36907 -0.42067,-10.96676 -1.18545,-16.12279 l 0.0244,1.1045 c 0.16631,1.73821 0.25132,3.50046 0.25132,5.28236 0,75.82951 -61.47202,137.30153 -137.30153,137.30153 z m 115.43573,-77.26018 c -11.00673,16.62475 -25.83468,30.49926 -43.23065,40.37169 -0.63608,0.36071 -1.44794,0.13988 -1.8134,-0.49315 l -6.21921,-10.77201 a 1.337865,1.337865 0 0 0 -1.8222,-0.48841 l -1.00696,0.58121 c -0.63608,0.36715 -0.85555,1.18579 -0.48806,1.82187 l 6.11048,10.58369 a 1.290447,1.290447 0 0 1 0.12261,1.05031 c -0.10974,0.36512 -0.33971,0.63879 -0.68045,0.8095 -17.91994,8.97047 -37.60044,13.47788 -57.63454,13.31463 -0.73092,-0.006 -1.32297,-0.60322 -1.32297,-1.3338 v -12.41606 c 0,-0.73464 -0.59916,-1.3338 -1.3338,-1.3338 h -1.16275 c -0.73464,0 -1.3338,0.59916 -1.3338,1.3338 v 12.19692 c 0,0.38138 -0.14158,0.70924 -0.41931,0.97072 -0.27774,0.26147 -0.61305,0.3834 -0.99375,0.36071 -20.56857,-1.22203 -39.81486,-7.35656 -56.58187,-17.24626 -0.62896,-0.37122 -0.84268,-1.18342 -0.47723,-1.81577 l 6.2182,-10.77033 a 1.337865,1.337865 0 0 0 -0.48841,-1.8222 l -1.00695,-0.58121 c -0.63608,-0.36749 -1.45472,-0.14801 -1.82221,0.48807 l -6.33945,10.98031 c -0.12701,0.21982 -0.3177,0.36207 -0.56461,0.42067 -0.24691,0.0586 -0.48129,0.0176 -0.69366,-0.12194 A 127.19879,127.19879 0 0 1 107.2713,229.57635 c -0.36071,-0.63574 -0.13988,-1.44795 0.49315,-1.8134 l 10.81977,-6.24699 a 1.334478,1.334478 0 0 0 0.5155,-1.77241 l -1.04319,-1.99732 c -0.17477,-0.33429 -0.44776,-0.55817 -0.80984,-0.66317 -0.36207,-0.105 -0.71262,-0.063 -1.03913,0.12566 l -11.59099,6.69203 a 0.172737,0.172737 0 0 1 -0.1392,0.0166 c -0.0484,-0.0142 -0.085,-0.0444 -0.10805,-0.0894 -8.866826,-17.2886 -13.510065,-35.85275 -13.510065,-56.62556 l 0.0044,-1.0581 c 0.0061,-0.73091 0.602886,-1.32296 1.333801,-1.32296 h 12.416404 c 0.73464,0 1.3338,-0.59916 1.3338,-1.3338 v -1.16276 c 0,-0.73464 -0.59916,-1.3338 -1.3338,-1.3338 H 92.416598 c -0.381038,0 -0.709238,-0.14157 -0.970714,-0.41931 -0.261477,-0.27773 -0.383409,-0.61305 -0.360716,-0.99374 1.22203,-20.56858 7.356564,-39.81453 17.246262,-56.58187 0.37122,-0.62897 1.18342,-0.84269 1.81577,-0.47757 l 10.76999,6.21819 c 0.63641,0.36749 1.45471,0.14802 1.8222,-0.4884 l 0.58121,-1.00696 c 0.36749,-0.63607 0.14801,-1.45471 -0.48806,-1.82186 l -10.98032,-6.339451 c -0.21982,-0.127012 -0.36173,-0.317701 -0.42033,-0.564613 a 0.860298,0.860298 0 0 1 0.12194,-0.693657 c 11.03281,-16.800875 25.95796,-30.818313 43.4928,-40.768981 0.63574,-0.360715 1.44794,-0.139883 1.8134,0.493486 l 6.21921,10.771676 c 0.36715,0.636079 1.18579,0.855556 1.82221,0.488067 l 1.00695,-0.581209 c 0.63642,-0.367151 0.85556,-1.185789 0.48807,-1.822206 l -6.34589,-10.991493 c -0.12701,-0.219816 -0.15444,-0.455551 -0.082,-0.698738 0.0725,-0.243186 0.2249,-0.425407 0.45115,-0.539549 16.06386,-8.116945 34.09354,-12.910566 53.18504,-13.475857 0.37427,-0.01118 0.7001,0.115497 0.96868,0.376296 0.26859,0.260799 0.40475,0.582564 0.40475,0.957166 v 12.859084 c 0,0.734641 0.59916,1.333801 1.3338,1.333801 h 1.16276 c 0.73464,0 1.3338,-0.59916 1.3338,-1.333801 v -13.14156 c 0,-0.583241 -0.36512,-1.081469 -0.9023,-1.262673 -3.41917,-0.580532 -6.69135,-0.849121 -10.31544,-0.849121 -75.82952,0 -137.301533,61.472013 -137.301533,137.301533 0,75.82951 61.472013,137.30152 137.301533,137.30152 75.82951,0 137.30152,-61.47201 137.30152,-137.30152 a 55.428255,55.428255 0 0 0 -0.25131,-5.28237 l -0.0244,-1.1045 -0.63438,-3.60987 -0.004,1.31823 c -0.006,0.73091 -0.60288,1.3233 -1.3338,1.3233 h -12.41742 c -0.73464,0 -1.3338,0.59916 -1.3338,1.3338 v 1.16275 c 0,0.73464 0.59916,1.3338 1.3338,1.3338 h 12.19693 c 0.38138,0 0.70958,0.14158 0.97071,0.41898 0.26114,0.27739 0.38341,0.61338 0.36072,0.99374 -1.22203,20.56858 -7.35656,39.81486 -17.24627,56.58187 -0.37121,0.62897 -1.18341,0.84269 -1.81577,0.47723 l -10.77032,-6.2182 c -0.63608,-0.36749 -1.45471,-0.14801 -1.82187,0.48841 l -0.5812,1.00695 c -0.36716,0.63608 -0.14802,1.45472 0.4884,1.82221 l 10.57151,6.10337 c 0.33057,0.19069 0.54395,0.47791 0.63133,0.84946 0.0874,0.37156 0.0247,0.72381 -0.18594,1.04185 z m -125.2665,97.73629 c -81.76116,0 -148.041702,-66.28054 -148.041702,-148.04171 0,-81.76116 66.280542,-148.041701 148.041702,-148.041701 6.96063,0 13.47518,0.602886 20.05612,1.826609 -0.0301,-0.0078 -0.0606,-0.0149 -0.0918,-0.02066 -9.67734,-1.845576 -19.5728,-2.810532 -29.7951,-2.810532 -87.69282,0 -158.782226,71.089404 -158.782226,158.782224 0,87.69281 71.089066,158.78222 158.782226,158.78222 87.69315,0 158.78222,-71.08941 158.78222,-158.78222 0,-8.80519 -0.71669,-17.44305 -2.0952,-25.85839 0.76478,5.15603 1.18545,10.75372 1.18545,16.12279 0,81.76117 -66.28054,148.04171 -148.04171,148.04171 z" />
    <path
       style="fill:#b3b3b3;fill-opacity:1;stroke:none;stroke-width:0.339;stroke-dasharray:none;paint-order:stroke markers fill;stop-color:#000000"
       d="m 306.85061,42.401582 -9.68275,23.004843 -23.80011,2.57412 17.81562,16.79173 -5.02631,24.595375 20.69355,-12.626733 20.69356,12.626733 -5.0263,-24.595375 17.81562,-16.79173 -23.80011,-2.57412 z"
       id="path10930" />
    <path
       style="fill:#b3b3b3;fill-opacity:1;stroke:none;stroke-width:0.339;stroke-dasharray:none;paint-order:stroke markers fill;stop-color:#000000"
       d="m 213.71421,178.21181 v -3.91055 l -5.62953,-3.30545 2.71536,-4.62461 2.91417,1.71109 V 65.696691 h 6.35571 V 171.81412 l 72.59899,42.62742 -2.71536,4.62461 -69.88363,-41.03305 v 0.17871 z"
       id="path10959" />
  </g>
</svg>
